<svg width="187" height="146" viewBox="0 0 187 146" fill="none" xmlns="http://www.w3.org/2000/svg">
<path opacity="0.2" d="M74.505 118.515C74.5274 124.128 73.3645 129.679 71.0958 134.788C68.8271 139.898 65.5064 144.445 61.361 148.118C52.4659 156.428 40.7758 160.892 28.7378 160.578C13.4557 160.578 1.38954 155.133 -7.46073 144.243C-16.3018 133.414 -21.0254 119.681 -20.7624 105.571C-20.7624 71.7878 -11.7106 46.3652 6.39302 29.3033C24.4966 12.2413 44.5368 2.79533 66.5135 0.965336L66.5135 38.0227C55.4387 39.2301 44.9542 43.7405 36.3612 50.994C31.939 54.3811 28.296 58.7197 25.6889 63.7042C23.0818 68.6887 21.5741 74.1977 21.272 79.8433C24.9219 78.0233 28.9368 77.1017 32.9964 77.1521C46.1228 77.1521 56.3225 80.9646 63.5955 88.5896C67.2694 92.5823 70.127 97.2863 72.0004 102.425C73.8738 107.564 74.7254 113.035 74.505 118.515ZM186.229 118.515C186.256 124.129 185.096 129.682 182.827 134.792C180.558 139.902 177.234 144.448 173.085 148.118C164.19 156.428 152.499 160.892 140.461 160.578C125.214 160.578 113.245 155.133 104.552 144.243C95.8174 133.363 91.1572 119.652 91.4082 105.571C91.4082 71.7878 100.364 46.3652 118.274 29.3033C136.185 12.2413 156.199 2.75942 178.316 0.857666V37.915C167.266 39.1692 156.818 43.7169 148.269 50.994C143.814 54.361 140.138 58.6916 137.502 63.6778C134.867 68.664 133.337 74.1833 133.022 79.8433C136.662 78.0226 140.669 77.1009 144.72 77.1521C157.829 77.1521 168.029 80.9646 175.319 88.5896C178.993 92.581 181.849 97.2854 183.718 102.425C185.588 107.565 186.432 113.036 186.202 118.515H186.229Z" fill="#F1F1F1" fill-opacity="0.1"/>
</svg>
