<svg width="12" height="20" viewBox="0 0 12 20" fill="none" xmlns="http://www.w3.org/2000/svg">
<path d="M0.439184 19.5131C0.157977 19.2318 4.00495e-06 18.8503 3.98756e-06 18.4526C3.97018e-06 18.0548 0.157977 17.6734 0.439184 17.3921L7.86418 9.96707L0.439183 2.54207C0.165946 2.25916 0.0147546 1.88026 0.0181722 1.48697C0.0215898 1.09367 0.179343 0.717451 0.457455 0.439339C0.735567 0.161227 1.11179 0.0034753 1.50508 5.76567e-05C1.89838 -0.00335999 2.27728 0.147831 2.56018 0.421069L11.0457 8.90657C11.3269 9.18786 11.4849 9.56932 11.4849 9.96707C11.4849 10.3648 11.3269 10.7463 11.0457 11.0276L2.56018 19.5131C2.27889 19.7943 1.89743 19.9522 1.49968 19.9522C1.10194 19.9522 0.720475 19.7943 0.439184 19.5131Z" fill="white"/>
</svg>
