<svg width="60" height="60" viewBox="0 0 60 60" fill="none" xmlns="http://www.w3.org/2000/svg">
<rect width="60" height="60" rx="30" fill="white" fill-opacity="0.19"/>
<path d="M25.1602 17.8535C24.9492 18.0762 23.9648 19.3594 23.8652 19.5293C23.8184 19.6172 23.4844 19.6289 20.6426 19.6406C17.543 19.6582 17.4668 19.6582 17.3086 19.7813C17.2207 19.8457 17.0918 19.9746 17.0273 20.0625L16.9043 20.2207L16.8867 30.832L16.875 41.4375L16.998 41.6484C17.0625 41.7715 17.1855 41.918 17.2734 41.9824C17.4316 42.0996 17.5254 42.0996 30 42.0996C42.4746 42.0996 42.5684 42.0996 42.7266 41.9824C42.8145 41.918 42.9375 41.7715 43.002 41.6484L43.125 41.4375L43.1133 30.832L43.0957 20.2207L42.9727 20.0625C42.9082 19.9746 42.7793 19.8457 42.6914 19.7813C42.5332 19.6582 42.5039 19.6582 34.7754 19.6406L27.0234 19.6289L26.6543 19.1191C26.1094 18.3691 25.6113 17.7598 25.4824 17.6895C25.3828 17.6367 25.3301 17.666 25.1602 17.8535ZM26.1035 20.0977L26.4785 20.6543L25.4473 20.6719C24.8789 20.6777 24.4043 20.6777 24.3926 20.6602C24.3574 20.6309 24.6035 20.2441 25.0371 19.6348L25.3945 19.1426L25.5586 19.3418C25.6523 19.4531 25.8984 19.793 26.1035 20.0977ZM22.8398 21.3105C22.6523 21.6914 22.3887 22.3125 22.2539 22.6875L22.002 23.3789H19.9395H17.8711V22.002V20.625H20.5254H23.1855L22.8398 21.3105ZM42.1289 22.002V23.3789L35.4727 23.3672L28.8223 23.3496L28.5879 22.7344C28.4648 22.3945 28.2012 21.7969 28.0078 21.3984C27.8145 21 27.6562 20.666 27.6562 20.6484C27.6562 20.6367 30.9141 20.625 34.8926 20.625H42.1289V22.002ZM27.293 22.2012C28.3594 24.5215 28.6641 27.0527 28.1777 29.4375C28.043 30.0879 27.7266 31.0781 27.4805 31.6289L27.3105 31.9922L25.4004 31.9805L23.4844 31.9629L23.2559 31.4121C22.5996 29.8418 22.3301 28.1602 22.4473 26.4434C22.5469 24.9961 22.9453 23.4492 23.5254 22.2246L23.7832 21.6797H25.418H27.0527L27.293 22.2012ZM21.7148 24.4746C21.5684 24.9844 21.3691 26.7715 21.3926 27.4219C21.3984 27.6445 21.2754 27.9609 20.5605 29.5313C19.5469 31.7637 19.5586 31.7051 19.9219 32.6953C20.3555 33.8555 20.4199 33.873 21.7324 33.1055L22.6289 32.5781L22.793 32.7539C22.8984 32.8652 23.0391 32.9414 23.1914 32.9648L23.4258 33L23.3145 33.2637C23.1562 33.6328 23.168 33.9551 23.3496 34.1309L23.4902 34.2773H25.3887C27.2051 34.2773 27.293 34.2715 27.4395 34.1602C27.6504 33.9902 27.6797 33.7793 27.5391 33.375C27.4746 33.1816 27.4219 33.0234 27.4219 33.0176C27.4219 33.0117 27.5273 32.9883 27.6504 32.9648C27.8086 32.9414 27.9258 32.8711 28.0312 32.7539L28.1777 32.5723L29.0859 33.1055C30.0586 33.668 30.3047 33.7383 30.5156 33.5273C30.5742 33.4688 30.7383 33.1113 30.873 32.7422C31.2598 31.7051 31.2656 31.7344 30.2461 29.4902L29.4141 27.6563V27.1758C29.4141 26.543 29.3086 25.4707 29.1855 24.8613L29.0859 24.375H35.6074H42.1289V32.7539V41.1328H30H17.8711V32.7539V24.375H19.8105C21.627 24.375 21.7441 24.3809 21.7148 24.4746ZM22.1074 31.2422L22.2539 31.6289L21.5801 32.0215C21.2109 32.2383 20.9004 32.4023 20.8945 32.3906C20.8477 32.332 20.6836 31.8574 20.6836 31.793C20.6836 31.7461 20.9004 31.2363 21.1641 30.6504L21.6387 29.5957L21.8027 30.2227C21.8906 30.5684 22.0312 31.0254 22.1074 31.2422ZM29.6719 30.668C29.918 31.2129 30.1172 31.7168 30.1172 31.7871C30.1172 31.8984 29.9707 32.3262 29.9121 32.3906C29.8945 32.4141 28.7637 31.7637 28.6641 31.6699C28.5938 31.6113 28.6113 31.5234 28.7344 31.1777C28.8164 30.9492 28.9395 30.5449 29.0039 30.2754C29.1445 29.7188 29.1738 29.625 29.2031 29.6543C29.2148 29.666 29.4199 30.123 29.6719 30.668ZM26.373 33.1465L26.4199 33.2813H25.4297C24.8613 33.2813 24.4336 33.2578 24.4336 33.2285C24.4336 32.9941 24.4746 32.9824 25.418 33C26.2969 33.0176 26.3262 33.0234 26.373 33.1465Z" fill="#F7B103"/>
<path d="M36.6738 21.6738C36.5742 21.7793 36.5039 21.9082 36.5039 22.002C36.5039 22.2246 36.7969 22.5 37.0312 22.5C37.2891 22.5 37.5 22.2715 37.5 22.002C37.5 21.5391 37.0078 21.3457 36.6738 21.6738Z" fill="#F7B103"/>
<path d="M38.5488 21.6738C38.4492 21.7793 38.3789 21.9082 38.3789 22.002C38.3789 22.2246 38.6719 22.5 38.9062 22.5C39.1641 22.5 39.375 22.2715 39.375 22.002C39.375 21.5391 38.8828 21.3457 38.5488 21.6738Z" fill="#F7B103"/>
<path d="M40.5117 21.5742C40.3711 21.6387 40.2539 21.8555 40.2539 22.0371C40.2539 22.2246 40.5645 22.5 40.7812 22.5C41.0391 22.5 41.25 22.2715 41.25 22.002C41.25 21.6152 40.875 21.3984 40.5117 21.5742Z" fill="#F7B103"/>
<path d="M24.7441 22.6699C24.293 22.8223 23.9473 23.1387 23.7188 23.6016C23.5488 23.9473 23.5254 24.0469 23.5254 24.4629C23.5312 25.0605 23.6836 25.4355 24.0879 25.8105C24.5098 26.2031 24.832 26.332 25.4062 26.3379C25.834 26.3379 25.916 26.3203 26.2852 26.1328C26.9473 25.793 27.3047 25.1953 27.3047 24.4277C27.3047 23.127 25.998 22.2363 24.7441 22.6699ZM25.8398 23.6777C26.4316 24.0117 26.4551 24.791 25.8926 25.207C25.4941 25.5059 24.8672 25.3242 24.6211 24.8437C24.2168 24.0586 25.0723 23.2441 25.8398 23.6777Z" fill="#F7B103"/>
<path d="M35.2852 26.8946C35.0391 27.1289 35.0684 27.4981 35.3555 27.6856C35.4785 27.7676 35.707 27.7793 37.0898 27.7617L38.6836 27.7442L38.7949 27.6035C38.9531 27.4102 38.9414 27.0996 38.7598 26.9239L38.6191 26.7774H37.0137C35.4844 26.7774 35.4082 26.7832 35.2852 26.8946Z" fill="#F7B103"/>
<path d="M33.4395 29.2031C33.2695 29.332 33.1992 29.6133 33.293 29.8066C33.4395 30.1172 33.3985 30.1172 37.0195 30.1172C40.5645 30.1172 40.6465 30.1113 40.7461 29.8535C40.8223 29.6484 40.7813 29.4082 40.6348 29.2676L40.4942 29.1211H37.0195C34.2188 29.127 33.5274 29.1387 33.4395 29.2031Z" fill="#F7B103"/>
<path d="M33.4453 31.0547C33.2871 31.1543 33.1992 31.4883 33.293 31.6816C33.4394 31.9922 33.3984 31.9922 37.0195 31.9922C40.5644 31.9922 40.6465 31.9863 40.7461 31.7285C40.8164 31.541 40.7812 31.3008 40.6582 31.1484L40.541 30.9961H37.043C34.875 30.9961 33.5098 31.0195 33.4453 31.0547Z" fill="#F7B103"/>
<path d="M33.4453 32.9297C33.3926 32.9648 33.3164 33.082 33.2813 33.1934C33.1992 33.4394 33.293 33.6797 33.5156 33.791C33.7031 33.8848 40.2129 33.9023 40.4649 33.8086C40.6817 33.7207 40.7754 33.5859 40.7813 33.334C40.7813 33.1934 40.7402 33.0879 40.6465 33L40.5117 32.8711H37.0254C34.8691 32.8711 33.5098 32.8945 33.4453 32.9297Z" fill="#F7B103"/>
<path d="M28.2773 33.9316L28.125 34.0488V36.9141V39.7793L28.2773 39.8965C28.4766 40.0547 28.7109 40.0547 28.9102 39.8965L29.0625 39.7793V36.9141V34.0488L28.9102 33.9316C28.8223 33.8613 28.6816 33.8086 28.5938 33.8086C28.5059 33.8086 28.3652 33.8613 28.2773 33.9316Z" fill="#F7B103"/>
<path d="M21.2461 34.2832L21.0938 34.4004V36.4512C21.0938 38.4199 21.0996 38.502 21.2109 38.6133C21.2871 38.6895 21.4043 38.7305 21.5625 38.7305C21.7207 38.7305 21.8379 38.6895 21.9141 38.6133C22.0254 38.502 22.0312 38.4199 22.0312 36.4512V34.4004L21.8789 34.2832C21.791 34.2129 21.6504 34.1602 21.5625 34.1602C21.4746 34.1602 21.334 34.2129 21.2461 34.2832Z" fill="#F7B103"/>
<path d="M25.9336 35.0449L25.7812 35.1621V36.9141V38.666L25.9395 38.7891C26.127 38.9356 26.4258 38.918 26.6074 38.7539C26.7129 38.6602 26.7188 38.543 26.7188 36.9082V35.1621L26.5664 35.0449C26.4785 34.9746 26.3379 34.9219 26.25 34.9219C26.1621 34.9219 26.0215 34.9746 25.9336 35.0449Z" fill="#F7B103"/>
<path d="M34.1602 35.584C33.7676 35.8418 33.7207 36.0059 33.7207 37.0898C33.7207 38.1738 33.7676 38.3379 34.1602 38.5957L34.3535 38.7305H37.0254H39.6973L39.9082 38.5898C40.2656 38.3438 40.3125 38.168 40.3125 37.084C40.3125 36.1816 40.3066 36.123 40.166 35.8887C39.9082 35.4434 39.9609 35.4492 36.9844 35.4492H34.3535L34.1602 35.584ZM39.3164 37.1191V37.793H37.002H34.6875V37.1191V36.4453H37.002H39.3164V37.1191Z" fill="#F7B103"/>
<path d="M23.6953 36.293C23.5957 36.3399 23.4961 36.416 23.4727 36.4746C23.4551 36.5274 23.4375 37.4063 23.4375 38.4317V40.2949L23.5723 40.418C23.7598 40.5938 24.082 40.5879 24.2461 40.4121C24.375 40.2774 24.375 40.2481 24.375 38.3906C24.375 36.5801 24.3691 36.4981 24.2578 36.3867C24.1934 36.3223 24.1172 36.2696 24.0879 36.2696C24.0586 36.2696 24 36.2578 23.9531 36.2403C23.9121 36.2285 23.7949 36.252 23.6953 36.293Z" fill="#F7B103"/>
</svg>
